<svg width="120" height="12" viewBox="0 0 120 12" fill="none" xmlns="http://www.w3.org/2000/svg">
<g clip-path="url(#clip0_4932_9951)">
<path fill-rule="evenodd" clip-rule="evenodd" d="M4.81364 3.3432C4.81364 3.5008 4.86084 3.6424 4.94004 3.7368C5.20884 4.084 6.33204 4.3368 6.94964 4.4624C7.70964 4.636 8.48404 4.7776 9.24404 4.9512C9.73444 5.0456 10.2096 5.156 10.684 5.3456C12.172 5.8976 12.6464 7.0016 12.6464 8.0104C12.6464 8.752 12.3928 9.4296 12.0608 9.9184C11.1272 11.3224 9.24404 11.9368 6.23684 11.9368C5.11364 11.9368 2.88324 11.8424 1.56964 10.6752C0.604037 9.824 0.461638 8.8 0.398438 8.2944L4.33844 8.184C4.48084 8.9096 5.22484 9.4616 6.80724 9.4616C7.21844 9.4616 7.80404 9.4136 8.19924 9.1936C8.46884 9.0352 8.75364 8.72 8.75364 8.3416C8.75364 7.8216 8.32644 7.6008 8.00964 7.4904C7.51924 7.332 5.00324 6.8904 4.44964 6.7648C4.01599 6.67326 3.58784 6.55734 3.16724 6.4176C2.74004 6.26 0.952037 5.6296 0.952037 3.5952C0.952037 2.7592 1.30004 1.9872 1.85444 1.4192C3.10404 0.1256 5.35044 0 6.58564 0C7.94644 0 9.29124 0.1888 9.98804 0.4256C12.076 1.088 12.3456 2.6496 12.456 3.248L8.53204 3.4688C8.43684 3.1064 8.24724 2.4448 6.56964 2.4448C6.04724 2.4448 4.81364 2.5232 4.81364 3.3432ZM14.472 0.4728H18.46V6.796C18.46 7.4904 18.5232 7.9944 18.776 8.42C19.2824 9.288 20.2952 9.524 21.1024 9.524C22.1464 9.524 22.748 9.1616 23.0168 8.9096C23.6968 8.2784 23.7128 7.2696 23.7128 6.7336V0.472H27.7008V6.3064C27.7008 7.6152 27.6688 8.9872 27.0528 9.9336C25.8328 11.8264 22.8896 12 21.1168 12C18.6328 12 17.224 11.6528 16.3856 11.1488C14.6448 10.2968 14.4712 8.5312 14.4712 7.632L14.472 0.4728ZM33.9072 5.172H36.5024C37.1832 5.172 38.196 5.156 38.196 4.084C38.196 3.7056 38.0216 3.3744 37.7848 3.2008C37.5 2.996 37.136 2.98 36.8192 2.98H33.9072V5.172ZM29.92 0.4568H37.5632C38.9872 0.4888 40.2848 0.5208 41.1712 1.3088C41.5824 1.6872 42.1992 2.4912 42.1992 4.0208C42.1992 4.7776 42.0256 5.6288 41.4552 6.3232C40.4272 7.5848 38.7496 7.6792 36.9304 7.6792H33.9072V11.6056H29.92V0.4568ZM55.6696 0.4728V2.98H47.9V4.7936H55.084V7.3168H47.884V9.0824H55.828V11.6056H43.8968V0.4728H55.6696ZM62.1312 5.0304H65.1384C65.7544 5.0304 66.768 5.0144 66.768 4.0208C66.768 3.7688 66.6888 3.5008 66.4832 3.3112C66.1664 3.0272 65.7552 2.996 65.4544 2.996H62.1312V5.0304ZM58.128 0.472H66.3408C67.3216 0.488 68.5248 0.504 69.4576 1.1816C70.2656 1.7968 70.7712 2.8848 70.7712 4.004C70.7712 4.7928 70.5184 5.5656 70.0592 6.1176C69.4264 6.8744 68.6672 7.032 68.192 7.1576L70.9928 11.6056H66.5624L64.268 7.552H62.132V11.6048H58.128V0.4728V0.472ZM76.5328 3.3432C76.5328 3.5008 76.5808 3.6424 76.66 3.7368C76.9288 4.084 78.052 4.3368 78.6696 4.4624C79.4296 4.636 80.204 4.7776 80.964 4.9512C81.4544 5.0456 81.9288 5.156 82.404 5.3456C83.8912 5.8976 84.3656 7.0016 84.3656 8.0104C84.3626 8.69007 84.1591 9.35374 83.7808 9.9184C82.8472 11.3224 80.964 11.9368 77.9568 11.9368C76.8336 11.9368 74.6024 11.8424 73.2888 10.6752C72.324 9.824 72.1824 8.8 72.1184 8.2944L76.0584 8.184C76.2008 8.9096 76.9448 9.4616 78.5272 9.4616C78.9384 9.4616 79.524 9.4136 79.9192 9.1936C80.1888 9.0352 80.4736 8.72 80.4736 8.3416C80.4736 7.8216 80.0464 7.6008 79.7296 7.4904C79.2392 7.332 76.7232 6.8904 76.1696 6.7648C75.736 6.67324 75.3078 6.55732 74.8872 6.4176C74.46 6.26 72.672 5.6296 72.672 3.5952C72.672 2.7592 73.02 1.9872 73.5736 1.4192C74.824 0.1256 77.0712 0 78.3064 0C79.6664 0 81.012 0.1888 81.708 0.4256C83.7968 1.088 84.0664 2.6496 84.1768 3.248L80.2528 3.4688C80.1576 3.1064 79.968 2.4448 78.2904 2.4448C77.768 2.4448 76.5328 2.5232 76.5328 3.3432ZM98.4648 0.4728V2.98H90.6952V4.7936H97.8792V7.3168H90.6792V9.0824H98.6232V11.6056H86.6912V0.4728H98.4648ZM112.552 0.4568V2.964H108.596V11.6056H104.561V2.964H100.589V0.4568H112.552Z" fill="black"/>
<path d="M114.964 2.96005V0.828055H114.152V0.456055H116.199V0.828055H115.381V2.96005H114.964ZM116.478 2.96005V0.456055H117.092L117.725 2.45605L118.025 1.45605L118.337 0.456055H118.939V2.96005H118.558V0.858455L117.913 2.96005H117.535L116.862 0.828055V2.96005H116.478Z" fill="black"/>
</g>
<defs>
<clipPath id="clip0_4932_9951">
<rect width="119.2" height="12" fill="white" transform="translate(0.398438)"/>
</clipPath>
</defs>
</svg>
